<?xml version="1.0" encoding="iso-8859-1"?>
<!-- Generator: Adobe Illustrator 19.0.0, SVG Export Plug-In . SVG Version: 6.00 Build 0)  -->
<svg version="1.1" id="Capa_1" xmlns="http://www.w3.org/2000/svg" xmlns:xlink="http://www.w3.org/1999/xlink" x="0px" y="0px"
	 viewBox="0 0 511.999 511.999" style="enable-background:new 0 0 511.999 511.999;" xml:space="preserve">
<path style="fill:#F7931E;" d="M256.087,485.375c-126.712,0-229.438-102.726-229.438-229.438S129.376,26.499,256.087,26.499
	s229.438,102.727,229.438,229.438C485.384,382.596,382.746,485.234,256.087,485.375z M256.087,44.148
	c-116.969,0-211.789,94.82-211.789,211.789s94.82,211.789,211.789,211.789s211.789-94.82,211.789-211.789
	C467.744,139.03,373.004,44.29,256.087,44.148z"/>
<path style="fill:#E6E6E6;" d="M511.999,511.849H344.333V282.411h114.719l52.947,52.947V511.849z"/>
<path style="fill:#F2F2F2;" d="M459.052,282.411v52.947h52.947L459.052,282.411z"/>
<path style="fill:#29485A;" d="M370.807,308.885h61.772v17.649h-61.772V308.885z"/>
<path style="fill:#06AAE9;" d="M60.915,295.921C4.967,325.651-16.291,395.1,13.43,451.057s99.179,77.206,155.135,47.485
	c21.108-11.216,38.193-28.75,48.853-50.15L114.895,397.13L60.915,295.921z"/>
<path style="fill:#FBB03B;" d="M224.416,362.908c-18.902-60.475-83.251-94.176-143.716-75.273
	c-6.839,2.136-13.457,4.906-19.785,8.286l53.98,101.209L224.416,362.908z"/>
<path style="fill:#FF0000;" d="M224.416,362.908L114.895,397.13l102.524,51.262C230.752,421.883,233.258,391.235,224.416,362.908
	L224.416,362.908z"/>
<path style="fill:#06AAE9;" d="M344.333,141.218H167.842l-44.123,70.596h264.736L344.333,141.218z"/>
<path style="fill:#FBB03B;" d="M300.21,70.622h-88.245l-44.123,70.596h176.491L300.21,70.622z"/>
<path style="fill:#ED1C24;" d="M256.087,0.026l-44.123,70.596h88.245L256.087,0.026z"/>
<g>
	<path style="fill:#29485A;" d="M9,0.026h70.596v17.649H9L9,0.026z"/>
	<path style="fill:#29485A;" d="M9,35.324h70.596v17.649H9L9,35.324z"/>
	<path style="fill:#29485A;" d="M9,70.622h35.298v17.649H9V70.622z"/>
	<path style="fill:#29485A;" d="M53.123,450.077h44.123v17.649H53.123L53.123,450.077z"/>
	<path style="fill:#29485A;" d="M53.123,423.604h26.474v17.649H53.123L53.123,423.604z"/>
</g>
<g>
	<path style="fill:#FF0000;" d="M379.631,405.955h17.649v79.421h-17.649V405.955z"/>
	<path style="fill:#FF0000;" d="M406.105,379.481h17.649v105.895h-17.649V379.481z"/>
	<path style="fill:#FF0000;" d="M432.578,388.306h17.649v97.07h-17.649V388.306z"/>
	<path style="fill:#FF0000;" d="M459.052,361.832h17.649v123.544h-17.649V361.832z"/>
</g>
<g>
</g>
<g>
</g>
<g>
</g>
<g>
</g>
<g>
</g>
<g>
</g>
<g>
</g>
<g>
</g>
<g>
</g>
<g>
</g>
<g>
</g>
<g>
</g>
<g>
</g>
<g>
</g>
<g>
</g>
</svg>
