<?xml version="1.0" encoding="iso-8859-1"?>
<!-- Generator: Adobe Illustrator 19.0.0, SVG Export Plug-In . SVG Version: 6.00 Build 0)  -->
<svg version="1.1" id="Capa_1" xmlns="http://www.w3.org/2000/svg" xmlns:xlink="http://www.w3.org/1999/xlink" x="0px" y="0px"
	 viewBox="0 0 512 512" style="enable-background:new 0 0 512 512;" xml:space="preserve">
<path style="fill:#29485A;" d="M256,467.862C138.99,467.862,44.138,373.01,44.138,256S138.99,44.138,256,44.138
	S467.862,138.99,467.862,256C467.73,372.948,372.948,467.73,256,467.862z M256,61.793C148.745,61.793,61.793,148.745,61.793,256
	S148.745,450.207,256,450.207S450.207,363.255,450.207,256C450.092,148.789,363.211,61.908,256,61.793z"/>
<path style="fill:#E6E6E6;" d="M167.724,229.517H0V0h114.759l52.966,52.966V229.517z"/>
<path style="fill:#B3B3B3;" d="M114.759,0v52.966h52.966L114.759,0z"/>
<path style="fill:#E6E6E6;" d="M512,512H344.276V282.483h114.759L512,335.448V512z"/>
<path style="fill:#B3B3B3;" d="M459.034,282.483v52.966H512L459.034,282.483z"/>
<g>
	<path style="fill:#29485A;" d="M26.483,26.483h61.793v17.655H26.483V26.483z"/>
	<path style="fill:#29485A;" d="M26.483,61.793h61.793v17.655H26.483V61.793z"/>
	<path style="fill:#29485A;" d="M26.483,97.103h114.759v17.655H26.483V97.103z"/>
</g>
<g>
	<path style="fill:#ED1C24;" d="M32.724,200.448l-12.482-12.482l41.551-41.551l26.483,26.483L126.173,135l12.482,12.482
		l-50.379,50.379l-26.483-26.483L32.724,200.448z"/>
	<path style="fill:#ED1C24;" d="M397.241,441.379h17.655v44.138h-17.655V441.379z"/>
</g>
<path style="fill:#F8CF26;" d="M432.552,406.069h17.655v79.448h-17.655V406.069z"/>
<path style="fill:#0071BC;" d="M467.862,370.759h17.655v114.759h-17.655V370.759z"/>
<g>
	<path style="fill:#29485A;" d="M370.759,300.138h52.966v17.655h-52.966V300.138z"/>
	<path style="fill:#29485A;" d="M370.759,326.621h26.483v17.655h-26.483V326.621z"/>
	<path style="fill:#29485A;" d="M370.759,353.103h26.483v17.655h-26.483V353.103z"/>
</g>
<circle style="fill:#D6B321;" cx="114.759" cy="397.241" r="52.966"/>
<g>
	<path style="fill:#F8CF26;" d="M114.759,467.862c-39,0-70.621-31.62-70.621-70.621s31.62-70.621,70.621-70.621
		s70.621,31.62,70.621,70.621C185.335,436.224,153.741,467.818,114.759,467.862z M114.759,344.276
		c-29.255,0-52.966,23.711-52.966,52.966c0,29.255,23.711,52.966,52.966,52.966s52.966-23.711,52.966-52.966
		C167.698,368.004,143.996,344.302,114.759,344.276z"/>
	<path style="fill:#F8CF26;" d="M141.241,410.483c0-12.191-9.878-22.069-22.069-22.069h-8.828c-2.436,0-4.414-1.977-4.414-4.414
		s1.977-4.414,4.414-4.414h22.069v-17.655h-8.828v-8.828h-17.655v9.278c-11.944,2.445-19.633,14.115-17.187,26.05
		c2.101,10.258,11.123,17.62,21.601,17.638h8.828c2.436,0,4.414,1.977,4.414,4.414s-1.977,4.414-4.414,4.414H97.103v17.655h8.828
		v8.828h17.655v-9.278C133.862,430.001,141.241,420.97,141.241,410.483z"/>
</g>
<circle style="fill:#D6B321;" cx="397.241" cy="114.759" r="52.966"/>
<g>
	<path style="fill:#F8CF26;" d="M397.241,185.379c-39,0-70.621-31.62-70.621-70.621s31.62-70.621,70.621-70.621
		s70.621,31.62,70.621,70.621C467.818,153.741,436.224,185.335,397.241,185.379z M397.241,61.793
		c-29.255,0-52.966,23.711-52.966,52.966s23.711,52.966,52.966,52.966c29.255,0,52.966-23.711,52.966-52.966
		C450.18,85.522,426.478,61.82,397.241,61.793z"/>
	<path style="fill:#F8CF26;" d="M423.724,128c0-12.191-9.878-22.069-22.069-22.069h-8.828c-2.436,0-4.414-1.977-4.414-4.414
		c0-2.436,1.977-4.414,4.414-4.414h22.069V79.448h-8.828v-8.828h-17.655v9.278c-11.944,2.445-19.633,14.115-17.187,26.05
		c2.101,10.258,11.123,17.62,21.601,17.638h8.828c2.436,0,4.414,1.977,4.414,4.414s-1.977,4.414-4.414,4.414h-22.069v17.655h8.828
		v8.828h17.655v-9.278C416.344,147.518,423.724,138.487,423.724,128z"/>
</g>
<g>
</g>
<g>
</g>
<g>
</g>
<g>
</g>
<g>
</g>
<g>
</g>
<g>
</g>
<g>
</g>
<g>
</g>
<g>
</g>
<g>
</g>
<g>
</g>
<g>
</g>
<g>
</g>
<g>
</g>
</svg>
